<svg viewBox="0 0 255 40" xmlns="http://www.w3.org/2000/svg"><g fill="currentColor"><path d="M 0,40.481248 V 9.2734241 h 3.5138326 v 3.3028619 h 0.04232 q 0.7196998,-1.24916 1.8204213,-2.074874 1.1007196,-0.8257103 2.4554499,-1.2279903 1.3547315,-0.423446 2.7941322,-0.423446 2.921139,0 5.101408,1.4608823 2.180269,1.460882 3.386827,4.086235 1.206556,2.60418 1.206556,6.055248 0,3.429896 -1.206556,6.055252 -1.206557,2.604178 -3.386827,4.086232 -2.180269,1.46088 -5.101408,1.46088 -1.4394011,0 -2.7306294,-0.42344 Q 6.6043007,31.228991 5.5247505,30.382111 4.4451983,29.535229 3.6408272,28.243717 h -0.04234 V 40.481248 Z M 10.075809,28.815367 q 1.947427,0 3.429163,-0.95274 1.481737,-0.95274 2.328443,-2.8159 0.8467,-1.86314 0.8467,-4.594372 0,-2.752384 -0.8467,-4.615539 -0.846706,-1.863174 -2.328443,-2.815924 -1.481737,-0.95275 -3.429163,-0.95275 -2.0744309,0 -3.5985029,1.037438 -1.5240714,1.037439 -2.3496111,2.921765 -0.8255377,1.884324 -0.8255377,4.42499 0,2.51949 0.8255377,4.403818 0.8255397,1.88434 2.3496111,2.921766 1.5240714,1.03746 3.5985029,1.037448 z m 14.436348,2.8159 V 9.2734241 h 3.429164 v 3.5145869 h 0.0846 q 0.61384,-1.736124 1.947379,-2.7947317 1.33358,-1.058608 3.429161,-1.058608 0.48688,0 0.88904,0.04236 0.42334,0.04236 0.63502,0.0847 v 3.5992697 q -0.21168,-0.06356 -0.82554,-0.1482 -0.5927,-0.10586 -1.3759,-0.10586 -1.227739,0 -2.286109,0.571632 -1.058399,0.571634 -1.693399,1.778466 -0.63504,1.206822 -0.63504,3.112315 v 13.761903 z m 22.776411,0.50812 q -3.090475,0 -5.440092,-1.48202 -2.328441,-1.503248 -3.640839,-4.12859 -1.291219,-2.625352 -1.291219,-6.034078 0,-3.429895 1.291239,-6.07642 1.3124,-2.646525 3.640839,-4.149751 2.349617,-1.5032261 5.440092,-1.5032261 3.111647,0 5.44009,1.5032261 2.328443,1.503224 3.619672,4.149751 1.31238,2.646525 1.31238,6.07642 0,3.408726 -1.31238,6.034078 -1.291239,2.625348 -3.619672,4.128574 -2.328443,1.48202 -5.44011,1.482036 z m 0,-3.26052 q 2.116763,0 3.61967,-1.03744 1.50294,-1.03744 2.307278,-2.92176 0.804359,-1.9055 0.804359,-4.424992 0,-2.561837 -0.804359,-4.446163 -0.80438,-1.905506 -2.307278,-2.964116 -1.502919,-1.05861 -3.61967,-1.05861 -2.095597,0 -3.619673,1.05861 -1.502919,1.037436 -2.307275,2.942935 -0.80436,1.9055 -0.80436,4.467334 0,2.540664 0.80436,4.42499 0.80434,1.88434 2.307275,2.921764 1.50292,1.03744 3.619673,1.037448 z M 71.610212,9.2734241 V 12.364566 H 59.502309 V 9.2734241 Z M 63.481834,31.631267 V 5.2930506 q 0,-1.6090879 0.719679,-2.7735587 0.71972,-1.1644712 2.032094,-1.79963717 1.333579,-0.63516578 3.13282,-0.63516578 0.74086,0 1.39706,0 0.6562,0 0.846679,0 V 3.1758303 q -0.190599,0 -0.867859,0 -0.65622,0 -1.03722,0 -1.418239,0 -2.032093,0.61399 -0.5927,0.6139879 -0.5927,2.0537033 V 31.631267 Z m 11.642219,0 V 9.2734241 h 3.598505 V 31.631267 Z M 76.923312,4.9119506 q -1.016039,0 -1.735739,-0.719856 -0.71972,-0.7198539 -0.71972,-1.7361219 0,-1.016267 0.71972,-1.73612077 Q 75.907257,0 76.923304,0 q 1.01606,0 1.73576,0.71985473 0.71972,0.71985497 0.71972,1.73612057 0,1.016268 -0.71972,1.7361199 -0.71972,0.719856 -1.735752,0.7198554 z M 87.655308,0.08468895 V 31.631267 h -3.5985 V 0.08468895 Z M 102.21865,32.139403 q -3.28097,0 -5.609417,-1.50324 -2.307279,-1.50324 -3.535001,-4.12858 -1.227739,-2.646526 -1.227739,-6.01291 0,-3.408722 1.291239,-6.055248 1.29124,-2.646523 3.577333,-4.14975 2.286111,-1.5243961 5.249575,-1.5243961 2.32846,0 4.1912,0.846888 1.88392,0.8468941 3.21749,2.4136321 1.33358,1.566746 2.0321,3.726307 0.71975,2.138393 0.71975,4.742571 v 0.99512 H 93.751598 v -3.091154 h 16.362612 l -1.54526,1.07978 q 0,-2.286596 -0.82546,-3.9592 -0.80436,-1.693778 -2.28611,-2.604182 -1.48172,-0.931576 -3.49267,-0.931576 -1.989762,0 -3.471498,0.931576 -1.460551,0.910394 -2.286103,2.604182 -0.804346,1.672606 -0.804346,3.9592 v 1.524392 q 0,2.307772 0.7832,4.08624 0.80436,1.77846 2.328433,2.794728 1.524084,0.99512 3.704344,0.99512 1.58758,0 2.79414,-0.48694 1.20656,-0.5081 1.98976,-1.39736 0.80436,-0.88922 1.14308,-2.053704 h 3.5985 q -0.4233,2.138394 -1.75694,3.768652 -1.33358,1.60908 -3.34451,2.51949 -1.98974,0.91042 -4.42403,0.91042 z"/><path fill="var(--color-highlight,#1d8)" d="m 118.32718,31.989763 q -1.10068,0 -1.88386,-0.762013 -0.76197,-0.783148 -0.76197,-1.88383 0,-1.121836 0.76197,-1.883829 0.78316,-0.761994 1.88386,-0.761994 1.12182,0 1.88386,0.761994 0.76198,0.761993 0.76198,1.883829 0,1.100642 -0.76198,1.88383 -0.76198,0.762013 -1.88386,0.762013 z"/><path d="M 125.75712,31.631267 V 9.2734241 h 3.42914 v 3.5145869 h 0.0844 q 0.61378,-1.736124 1.94742,-2.7947317 1.33356,-1.058608 3.42917,-1.058608 0.48674,0 0.88904,0.04236 0.4233,0.04236 0.63506,0.0847 v 3.5992697 q -0.21176,-0.06356 -0.82536,-0.1482 -0.5927,-0.10586 -1.37592,-0.10586 -1.22774,0 -2.28609,0.571632 -1.0584,0.571634 -1.69342,1.778466 -0.63504,1.206822 -0.63504,3.112315 v 13.761903 z m 22.7764,0.50812 q -3.09047,0 -5.44011,-1.48202 -2.32843,-1.50328 -3.64082,-4.128628 -1.29125,-2.62535 -1.29125,-6.034078 0,-3.429896 1.29124,-6.076419 1.31238,-2.646527 3.64082,-4.149753 2.34964,-1.5032259 5.44011,-1.5032259 3.11165,0 5.44008,1.5032259 2.32845,1.503226 3.61969,4.149753 1.31238,2.646523 1.31238,6.076419 0,3.408728 -1.31238,6.034078 -1.29124,2.625362 -3.61969,4.12859 -2.32843,1.48204 -5.44007,1.482058 z m 0,-3.26052 q 2.11676,0 3.61965,-1.03744 1.50296,-1.03744 2.3073,-2.92176 0.80426,-1.9055 0.80426,-4.424992 0,-2.561837 -0.80426,-4.446163 -0.80438,-1.90549 -2.3073,-2.964097 -1.5029,-1.058608 -3.61965,-1.058608 -2.0956,0 -3.61966,1.058608 -1.50294,1.037438 -2.30728,2.942936 -0.80434,1.905498 -0.80434,4.467334 0,2.540664 0.80434,4.424988 0.80434,1.88434 2.30728,2.921766 1.50292,1.03746 3.61966,1.037428 z m 23.79247,3.260524 q -3.09048,0 -5.4401,-1.48204 -2.32844,-1.50326 -3.64083,-4.128594 -1.29122,-2.62535 -1.29122,-6.034078 0,-3.429896 1.29124,-6.07642 1.3124,-2.646526 3.64083,-4.149752 2.34962,-1.5032259 5.4401,-1.5032259 1.90508,0 3.51384,0.592822 1.62988,0.57165 2.85761,1.6302579 1.24894,1.037436 2.03212,2.455974 0.78328,1.418536 1.01608,3.112315 h -3.64084 q -0.1904,-0.9951 -0.65624,-1.820811 -0.46556,-0.825708 -1.20654,-1.418536 -0.71964,-0.613994 -1.6934,-0.952738 -0.97374,-0.338752 -2.22258,-0.338752 -2.0956,0 -3.61968,1.058608 -1.50294,1.037436 -2.30728,2.942936 -0.80428,1.905496 -0.80428,4.467332 0,2.540666 0.80428,4.424992 0.80436,1.88434 2.30728,2.921764 1.50292,1.03744 3.61968,1.03744 1.2489,0 2.20143,-0.31758 0.9525,-0.31758 1.6299,-0.91042 0.69848,-0.614 1.16422,-1.4397 0.46566,-0.84688 0.71976,-1.86314 h 3.70431 q -0.23284,1.65144 -1.01608,3.06997 -0.78318,1.41856 -2.03211,2.47715 -1.2489,1.0586 -2.8788,1.65142 -1.60873,0.59282 -3.49265,0.59282 z m 16.80713,-8.553564 v -4.255608 h 0.27518 L 199.80165,9.2734241 h 4.65691 L 193.57838,19.859524 h -0.33879 z m -3.36566,8.04544 V 0.08468895 h 3.59849 V 31.631267 Z m 14.83854,0 -9.10211,-10.967196 2.54012,-2.498323 11.13419,13.465519 z m 14.94436,0.50812 q -2.39194,0 -4.33936,-0.78338 -1.9474,-0.78334 -3.154,-2.371278 -1.2066,-1.60906 -1.3548,-4.04389 h 3.55616 q 0.19,1.99018 1.524,3.0488 1.3338,1.05862 3.6832,1.05862 2.32844,0 3.66204,-0.97392 1.3546,-0.97392 1.3546,-2.455978 0,-1.27034 -0.931,-2.03253 -0.931,-0.76218 -2.43426,-1.10094 l -3.59836,-0.8469 q -3.11166,-0.74106 -4.72036,-2.328943 -1.5874,-1.587918 -1.5874,-4.022718 0,-1.905498 1.016,-3.366381 1.0372,-1.482056 2.85768,-2.3077691 1.8418,-0.846888 4.23352,-0.846888 2.32846,0 4.17006,0.889232 1.86279,0.8680521 2.94227,2.4771491 1.1008,1.60909 1.1644,3.832168 h -3.51401 q -0.022,-1.778466 -1.3126,-2.942937 -1.2916,-1.164472 -3.45032,-1.164472 -2.05328,0 -3.28098,0.9951 -1.2278,0.995102 -1.2278,2.434804 0,1.270332 0.931,2.053703 0.9312,0.762208 2.54016,1.143298 l 3.5985,0.846884 q 3.21748,0.762202 4.72037,2.2866 1.503,1.50324 1.503,3.916858 0,2.074872 -1.1222,3.556932 -1.1222,1.48202 -3.06931,2.265426 -1.926,0.78336 -4.36058,0.78336 z"/><text font-size="xx-large" fill="var(--color-highlight,#1d8)" x="227" y="24">™</text></g></svg>